<svg xmlns="http://www.w3.org/2000/svg" width="649" height="172" viewBox="0 0 649 172" role="img" aria-label="moodi logo">
  <path fill="#1E1D1F" fill-rule="evenodd" d="M 616 51 L 615 52 L 614 53 L 614 54 L 614 55 L 614 56 L 614 57 L 614 58 L 614 59 L 614 60 L 614 61 L 614 62 L 614 63 L 614 64 L 614 65 L 614 66 L 614 67 L 614 68 L 614 69 L 614 70 L 614 71 L 614 72 L 614 73 L 614 74 L 614 75 L 614 76 L 614 77 L 614 78 L 614 79 L 614 80 L 614 81 L 614 82 L 614 83 L 614 84 L 614 85 L 614 86 L 614 87 L 614 88 L 614 89 L 614 90 L 614 91 L 614 92 L 614 93 L 614 94 L 614 95 L 614 96 L 614 97 L 614 98 L 614 99 L 614 100 L 614 101 L 614 102 L 614 103 L 614 104 L 614 105 L 614 106 L 614 107 L 614 108 L 614 109 L 614 110 L 614 111 L 614 112 L 614 113 L 614 114 L 614 115 L 614 116 L 614 117 L 614 118 L 614 119 L 614 120 L 614 121 L 614 122 L 614 123 L 614 124 L 614 125 L 614 126 L 614 127 L 614 128 L 614 129 L 614 130 L 614 131 L 614 132 L 614 133 L 614 134 L 614 135 L 614 136 L 614 137 L 614 138 L 614 139 L 614 140 L 614 141 L 614 142 L 614 143 L 614 144 L 614 145 L 614 146 L 614 147 L 614 148 L 614 149 L 614 150 L 614 151 L 614 152 L 614 153 L 614 154 L 614 155 L 614 156 L 614 157 L 614 158 L 615 159 L 615 160 L 616 160 L 617 160 L 618 160 L 619 160 L 620 160 L 621 160 L 622 160 L 623 160 L 624 160 L 625 160 L 626 160 L 627 160 L 628 160 L 629 160 L 630 160 L 631 160 L 632 160 L 633 160 L 634 160 L 635 159 L 635 158 L 636 157 L 636 156 L 636 155 L 636 154 L 636 153 L 636 152 L 636 151 L 636 150 L 636 149 L 636 148 L 636 147 L 636 146 L 636 145 L 636 144 L 636 143 L 636 142 L 636 141 L 636 140 L 636 139 L 636 138 L 636 137 L 636 136 L 636 135 L 636 134 L 636 133 L 636 132 L 636 131 L 636 130 L 636 129 L 636 128 L 636 127 L 636 126 L 636 125 L 636 124 L 636 123 L 636 122 L 636 121 L 636 120 L 636 119 L 636 118 L 636 117 L 636 116 L 636 115 L 636 114 L 636 113 L 636 112 L 636 111 L 636 110 L 636 109 L 636 108 L 636 107 L 636 106 L 636 105 L 636 104 L 636 103 L 636 102 L 636 101 L 636 100 L 636 99 L 636 98 L 636 97 L 636 96 L 636 95 L 636 94 L 636 93 L 636 92 L 636 91 L 636 90 L 636 89 L 636 88 L 636 87 L 636 86 L 636 85 L 636 84 L 636 83 L 636 82 L 636 81 L 636 80 L 636 79 L 636 78 L 636 77 L 636 76 L 636 75 L 636 74 L 636 73 L 636 72 L 636 71 L 636 70 L 636 69 L 636 68 L 636 67 L 636 66 L 636 65 L 636 64 L 636 63 L 636 62 L 636 61 L 636 60 L 636 59 L 636 58 L 636 57 L 636 56 L 636 55 L 636 54 L 635 53 L 635 52 L 634 52 L 633 51 L 632 51 L 631 51 L 630 51 L 629 51 L 628 51 L 627 51 L 626 51 L 625 51 L 624 51 L 623 51 L 622 51 L 621 51 L 620 51 L 619 51 L 618 51 L 617 51 Z M 382 49 L 381 50 L 380 50 L 379 50 L 378 50 L 377 50 L 376 51 L 375 51 L 374 51 L 373 52 L 372 52 L 371 52 L 370 53 L 369 53 L 368 54 L 367 54 L 366 55 L 365 55 L 364 56 L 363 56 L 362 57 L 361 57 L 360 58 L 359 59 L 358 59 L 357 60 L 356 61 L 355 62 L 354 63 L 353 64 L 352 65 L 351 66 L 350 67 L 349 68 L 348 69 L 347 70 L 347 71 L 346 72 L 345 73 L 345 74 L 344 75 L 343 76 L 343 77 L 342 78 L 342 79 L 341 80 L 341 81 L 340 82 L 340 83 L 339 84 L 339 85 L 339 86 L 338 87 L 338 88 L 338 89 L 337 90 L 337 91 L 337 92 L 337 93 L 337 94 L 336 95 L 336 96 L 336 97 L 336 98 L 336 99 L 336 100 L 336 101 L 336 102 L 336 103 L 336 104 L 336 105 L 336 106 L 336 107 L 336 108 L 336 109 L 336 110 L 336 111 L 336 112 L 336 113 L 336 114 L 336 115 L 336 116 L 337 117 L 337 118 L 337 119 L 337 120 L 337 121 L 338 122 L 338 123 L 338 124 L 338 125 L 339 126 L 339 127 L 340 128 L 340 129 L 340 130 L 341 131 L 341 132 L 342 133 L 342 134 L 343 135 L 343 136 L 344 137 L 345 138 L 345 139 L 346 140 L 347 141 L 348 142 L 349 143 L 349 144 L 350 145 L 351 146 L 352 147 L 353 148 L 354 149 L 355 149 L 356 150 L 357 151 L 358 152 L 359 152 L 360 153 L 361 154 L 362 154 L 363 155 L 364 155 L 365 156 L 366 156 L 367 157 L 368 157 L 369 158 L 370 158 L 371 159 L 372 159 L 373 159 L 374 160 L 375 160 L 376 160 L 377 161 L 378 161 L 379 161 L 380 161 L 381 162 L 382 162 L 383 162 L 384 162 L 385 162 L 386 162 L 387 162 L 388 163 L 389 163 L 390 163 L 391 163 L 392 163 L 393 163 L 394 163 L 395 163 L 396 163 L 397 163 L 398 163 L 399 163 L 400 163 L 401 163 L 402 163 L 403 162 L 404 162 L 405 162 L 406 162 L 407 162 L 408 162 L 409 162 L 410 162 L 411 161 L 412 161 L 413 161 L 414 161 L 415 160 L 416 160 L 417 160 L 418 159 L 419 159 L 420 159 L 421 158 L 422 158 L 423 157 L 424 157 L 425 156 L 426 156 L 427 155 L 428 155 L 429 154 L 430 153 L 431 153 L 432 152 L 433 151 L 434 150 L 435 150 L 436 149 L 437 148 L 438 147 L 439 146 L 440 145 L 441 144 L 442 143 L 443 142 L 443 141 L 444 140 L 445 139 L 446 138 L 446 137 L 447 136 L 447 135 L 448 134 L 448 133 L 449 132 L 449 131 L 450 130 L 450 129 L 451 128 L 451 127 L 451 126 L 452 125 L 452 124 L 453 123 L 453 122 L 453 121 L 453 120 L 453 119 L 454 118 L 454 117 L 454 116 L 454 115 L 454 114 L 454 113 L 455 112 L 455 111 L 455 110 L 455 109 L 455 108 L 455 107 L 455 106 L 455 105 L 455 104 L 455 103 L 455 102 L 455 101 L 455 100 L 455 99 L 454 98 L 454 97 L 454 96 L 454 95 L 454 94 L 454 93 L 453 92 L 453 91 L 453 90 L 453 89 L 452 88 L 452 87 L 452 86 L 451 85 L 451 84 L 451 83 L 450 82 L 450 81 L 449 80 L 449 79 L 448 78 L 448 77 L 447 76 L 446 75 L 446 74 L 445 73 L 444 72 L 444 71 L 443 70 L 442 69 L 441 68 L 440 67 L 439 66 L 438 65 L 437 64 L 436 63 L 435 62 L 434 61 L 433 60 L 432 60 L 431 59 L 430 58 L 429 58 L 428 57 L 427 56 L 426 56 L 425 55 L 424 55 L 423 54 L 422 54 L 421 53 L 420 53 L 419 53 L 418 52 L 417 52 L 416 51 L 415 51 L 414 51 L 413 51 L 412 50 L 411 50 L 410 50 L 409 50 L 408 50 L 407 50 L 406 49 L 405 49 L 404 49 L 403 49 L 402 49 L 401 49 L 400 49 L 399 49 L 398 49 L 397 49 L 396 49 L 395 49 L 394 49 L 393 49 L 392 49 L 391 49 L 390 49 L 389 49 L 388 49 L 387 49 L 386 49 L 385 49 L 384 49 L 383 49 Z M 391 67 L 392 66 L 393 66 L 394 66 L 395 66 L 396 66 L 397 66 L 398 67 L 399 67 L 400 67 L 401 67 L 402 67 L 403 68 L 404 68 L 405 68 L 406 68 L 407 69 L 408 69 L 409 69 L 410 69 L 411 70 L 412 70 L 413 71 L 414 71 L 415 72 L 416 73 L 417 73 L 418 74 L 419 75 L 420 76 L 421 77 L 422 78 L 423 79 L 424 80 L 425 81 L 426 82 L 426 83 L 427 84 L 427 85 L 428 86 L 428 87 L 429 88 L 429 89 L 430 90 L 430 91 L 430 92 L 431 93 L 431 94 L 431 95 L 432 96 L 432 97 L 432 98 L 432 99 L 432 100 L 432 101 L 433 102 L 433 103 L 433 104 L 433 105 L 433 106 L 433 107 L 433 108 L 433 109 L 433 110 L 432 111 L 432 112 L 432 113 L 432 114 L 432 115 L 432 116 L 431 117 L 431 118 L 431 119 L 431 120 L 430 121 L 430 122 L 430 123 L 429 124 L 429 125 L 428 126 L 428 127 L 427 128 L 427 129 L 426 130 L 425 131 L 424 132 L 424 133 L 423 134 L 422 135 L 421 136 L 420 137 L 419 137 L 418 138 L 417 139 L 416 140 L 415 140 L 414 141 L 413 141 L 412 142 L 411 142 L 410 143 L 409 143 L 408 143 L 407 144 L 406 144 L 405 144 L 404 144 L 403 145 L 402 145 L 401 145 L 400 145 L 399 145 L 398 145 L 397 145 L 396 145 L 395 145 L 394 145 L 393 145 L 392 145 L 391 145 L 390 145 L 389 145 L 388 145 L 387 145 L 386 144 L 385 144 L 384 144 L 383 144 L 382 143 L 381 143 L 380 143 L 379 142 L 378 142 L 377 141 L 376 141 L 375 140 L 374 140 L 373 139 L 372 138 L 371 138 L 370 137 L 369 136 L 368 135 L 367 134 L 367 133 L 366 132 L 365 131 L 364 130 L 363 129 L 363 128 L 362 127 L 362 126 L 361 125 L 361 124 L 360 123 L 360 122 L 360 121 L 359 120 L 359 119 L 359 118 L 359 117 L 358 116 L 358 115 L 358 114 L 358 113 L 358 112 L 358 111 L 358 110 L 358 109 L 358 108 L 358 107 L 358 106 L 358 105 L 358 104 L 358 103 L 358 102 L 358 101 L 358 100 L 358 99 L 358 98 L 358 97 L 358 96 L 359 95 L 359 94 L 359 93 L 359 92 L 360 91 L 360 90 L 360 89 L 361 88 L 361 87 L 362 86 L 362 85 L 363 84 L 364 83 L 364 82 L 365 81 L 366 80 L 366 79 L 367 78 L 368 77 L 369 76 L 370 75 L 371 74 L 372 74 L 373 73 L 374 72 L 375 72 L 376 71 L 377 71 L 378 70 L 379 69 L 380 69 L 381 69 L 382 68 L 383 68 L 384 68 L 385 67 L 386 67 L 387 67 L 388 67 L 389 67 L 390 67 Z M 247 49 L 246 50 L 245 50 L 244 50 L 243 50 L 242 50 L 241 51 L 240 51 L 239 51 L 238 51 L 237 52 L 236 52 L 235 52 L 234 53 L 233 53 L 232 54 L 231 54 L 230 55 L 229 55 L 228 56 L 227 57 L 226 57 L 225 58 L 224 58 L 223 59 L 222 60 L 221 61 L 220 61 L 219 62 L 218 63 L 217 64 L 216 65 L 215 66 L 214 67 L 213 68 L 213 69 L 212 70 L 211 71 L 210 72 L 210 73 L 209 74 L 208 75 L 208 76 L 207 77 L 207 78 L 206 79 L 206 80 L 205 81 L 205 82 L 204 83 L 204 84 L 203 85 L 203 86 L 203 87 L 203 88 L 202 89 L 202 90 L 202 91 L 201 92 L 201 93 L 201 94 L 201 95 L 201 96 L 201 97 L 201 98 L 200 99 L 200 100 L 200 101 L 200 102 L 200 103 L 200 104 L 200 105 L 200 106 L 200 107 L 200 108 L 200 109 L 200 110 L 200 111 L 200 112 L 200 113 L 200 114 L 201 115 L 201 116 L 201 117 L 201 118 L 201 119 L 201 120 L 202 121 L 202 122 L 202 123 L 203 124 L 203 125 L 203 126 L 203 127 L 204 128 L 204 129 L 205 130 L 205 131 L 206 132 L 206 133 L 206 134 L 207 135 L 208 136 L 208 137 L 209 138 L 210 139 L 210 140 L 211 141 L 212 142 L 213 143 L 214 144 L 215 145 L 216 146 L 217 147 L 217 148 L 218 148 L 219 149 L 220 150 L 221 151 L 222 152 L 223 152 L 224 153 L 225 154 L 226 154 L 227 155 L 228 155 L 229 156 L 230 156 L 231 157 L 232 157 L 233 158 L 234 158 L 235 159 L 236 159 L 237 159 L 238 160 L 239 160 L 240 160 L 241 161 L 242 161 L 243 161 L 244 161 L 245 162 L 246 162 L 247 162 L 248 162 L 249 162 L 250 162 L 251 162 L 252 162 L 253 163 L 254 163 L 255 163 L 256 163 L 257 163 L 258 163 L 259 163 L 260 163 L 261 163 L 262 163 L 263 163 L 264 163 L 265 163 L 266 163 L 267 163 L 268 162 L 269 162 L 270 162 L 271 162 L 272 162 L 273 162 L 274 162 L 275 161 L 276 161 L 277 161 L 278 161 L 279 160 L 280 160 L 281 160 L 282 160 L 283 159 L 284 159 L 285 158 L 286 158 L 287 158 L 288 157 L 289 156 L 290 156 L 291 155 L 292 155 L 293 154 L 294 154 L 295 153 L 296 152 L 297 152 L 298 151 L 299 150 L 300 149 L 301 149 L 301 148 L 302 147 L 303 147 L 304 146 L 305 145 L 306 144 L 306 143 L 307 142 L 308 141 L 309 140 L 309 139 L 310 138 L 311 137 L 311 136 L 312 135 L 312 134 L 313 133 L 313 132 L 314 131 L 314 130 L 315 129 L 315 128 L 315 127 L 316 126 L 316 125 L 316 124 L 317 123 L 317 122 L 317 121 L 317 120 L 318 119 L 318 118 L 318 117 L 318 116 L 318 115 L 319 114 L 319 113 L 319 112 L 319 111 L 319 110 L 319 109 L 319 108 L 319 107 L 319 106 L 319 105 L 319 104 L 319 103 L 319 102 L 319 101 L 319 100 L 319 99 L 319 98 L 319 97 L 318 96 L 318 95 L 318 94 L 318 93 L 318 92 L 317 91 L 317 90 L 317 89 L 317 88 L 316 87 L 316 86 L 316 85 L 315 84 L 315 83 L 314 82 L 314 81 L 313 80 L 313 79 L 312 78 L 312 77 L 311 76 L 311 75 L 310 74 L 309 73 L 309 72 L 308 71 L 307 70 L 306 69 L 305 68 L 305 67 L 304 66 L 303 65 L 302 64 L 301 63 L 300 62 L 299 62 L 298 61 L 297 60 L 296 59 L 295 59 L 294 58 L 293 57 L 292 57 L 291 56 L 290 56 L 289 55 L 288 55 L 287 54 L 286 54 L 285 53 L 284 53 L 283 53 L 282 52 L 281 52 L 280 51 L 279 51 L 278 51 L 277 51 L 276 50 L 275 50 L 274 50 L 273 50 L 272 49 L 271 49 L 270 49 L 269 49 L 268 49 L 267 49 L 266 49 L 265 49 L 264 49 L 263 49 L 262 49 L 261 49 L 260 49 L 259 49 L 258 49 L 257 49 L 256 49 L 255 49 L 254 49 L 253 49 L 252 49 L 251 49 L 250 49 L 249 49 L 248 49 Z M 255 67 L 256 66 L 257 66 L 258 66 L 259 66 L 260 66 L 261 66 L 262 67 L 263 67 L 264 67 L 265 67 L 266 67 L 267 67 L 268 68 L 269 68 L 270 68 L 271 68 L 272 69 L 273 69 L 274 69 L 275 70 L 276 70 L 277 71 L 278 71 L 279 72 L 280 72 L 281 73 L 282 74 L 283 75 L 284 76 L 285 76 L 286 77 L 287 78 L 287 79 L 288 80 L 289 81 L 290 82 L 291 83 L 291 84 L 292 85 L 292 86 L 293 87 L 293 88 L 294 89 L 294 90 L 294 91 L 295 92 L 295 93 L 295 94 L 296 95 L 296 96 L 296 97 L 296 98 L 296 99 L 297 100 L 297 101 L 297 102 L 297 103 L 297 104 L 297 105 L 297 106 L 297 107 L 297 108 L 297 109 L 297 110 L 297 111 L 297 112 L 296 113 L 296 114 L 296 115 L 296 116 L 296 117 L 295 118 L 295 119 L 295 120 L 295 121 L 294 122 L 294 123 L 293 124 L 293 125 L 293 126 L 292 127 L 292 128 L 291 129 L 290 130 L 289 131 L 289 132 L 288 133 L 287 134 L 286 135 L 285 136 L 284 137 L 283 138 L 282 138 L 281 139 L 280 140 L 279 140 L 278 141 L 277 141 L 276 142 L 275 142 L 274 143 L 273 143 L 272 143 L 271 144 L 270 144 L 269 144 L 268 144 L 267 145 L 266 145 L 265 145 L 264 145 L 263 145 L 262 145 L 261 145 L 260 145 L 259 145 L 258 145 L 257 145 L 256 145 L 255 145 L 254 145 L 253 145 L 252 144 L 251 144 L 250 144 L 249 144 L 248 144 L 247 143 L 246 143 L 245 143 L 244 142 L 243 142 L 242 141 L 241 141 L 240 140 L 239 140 L 238 139 L 237 138 L 236 137 L 235 137 L 234 136 L 233 135 L 233 134 L 232 133 L 231 132 L 230 131 L 229 130 L 229 129 L 228 128 L 227 127 L 227 126 L 226 125 L 226 124 L 225 123 L 225 122 L 225 121 L 224 120 L 224 119 L 224 118 L 223 117 L 223 116 L 223 115 L 223 114 L 223 113 L 223 112 L 222 111 L 222 110 L 222 109 L 222 108 L 222 107 L 222 106 L 222 105 L 222 104 L 222 103 L 222 102 L 223 101 L 223 100 L 223 99 L 223 98 L 223 97 L 223 96 L 223 95 L 224 94 L 224 93 L 224 92 L 224 91 L 225 90 L 225 89 L 225 88 L 226 87 L 227 86 L 227 85 L 228 84 L 228 83 L 229 82 L 230 81 L 230 80 L 231 79 L 232 78 L 233 77 L 234 76 L 235 75 L 236 74 L 237 73 L 238 73 L 239 72 L 240 71 L 241 71 L 242 70 L 243 70 L 244 69 L 245 69 L 246 69 L 247 68 L 248 68 L 249 68 L 250 67 L 251 67 L 252 67 L 253 67 L 254 67 Z M 46 49 L 45 50 L 44 50 L 43 50 L 42 50 L 41 50 L 40 51 L 39 51 L 38 51 L 37 52 L 36 52 L 35 53 L 34 53 L 33 54 L 32 54 L 31 55 L 30 55 L 29 56 L 28 56 L 27 57 L 26 58 L 25 58 L 24 59 L 23 60 L 22 61 L 21 61 L 20 62 L 20 63 L 19 64 L 18 65 L 17 66 L 16 67 L 16 68 L 15 69 L 14 70 L 14 71 L 13 72 L 13 73 L 12 74 L 12 75 L 11 76 L 11 77 L 11 78 L 10 79 L 10 80 L 10 81 L 9 82 L 9 83 L 9 84 L 9 85 L 9 86 L 8 87 L 8 88 L 8 89 L 8 90 L 8 91 L 8 92 L 8 93 L 8 94 L 8 95 L 8 96 L 8 97 L 8 98 L 8 99 L 8 100 L 8 101 L 8 102 L 8 103 L 8 104 L 8 105 L 8 106 L 8 107 L 8 108 L 7 109 L 8 110 L 8 111 L 8 112 L 8 113 L 8 114 L 8 115 L 8 116 L 8 117 L 8 118 L 8 119 L 8 120 L 8 121 L 8 122 L 8 123 L 8 124 L 7 125 L 8 126 L 8 127 L 7 128 L 8 129 L 8 130 L 8 131 L 8 132 L 7 133 L 8 134 L 8 135 L 8 136 L 8 137 L 8 138 L 7 139 L 7 140 L 8 141 L 8 142 L 8 143 L 8 144 L 8 145 L 8 146 L 8 147 L 8 148 L 8 149 L 8 150 L 8 151 L 8 152 L 8 153 L 8 154 L 8 155 L 8 156 L 8 157 L 8 158 L 9 159 L 10 160 L 11 160 L 12 160 L 13 160 L 14 160 L 15 160 L 16 160 L 17 160 L 18 160 L 19 160 L 20 160 L 21 160 L 22 160 L 23 160 L 24 160 L 25 160 L 26 160 L 27 160 L 28 160 L 29 160 L 30 159 L 30 158 L 30 157 L 30 156 L 30 155 L 30 154 L 30 153 L 30 152 L 30 151 L 30 150 L 30 149 L 30 148 L 30 147 L 30 146 L 30 145 L 30 144 L 30 143 L 30 142 L 30 141 L 30 140 L 30 139 L 30 138 L 30 137 L 30 136 L 30 135 L 30 134 L 30 133 L 30 132 L 30 131 L 30 130 L 30 129 L 30 128 L 30 127 L 30 126 L 30 125 L 30 124 L 30 123 L 30 122 L 30 121 L 30 120 L 30 119 L 30 118 L 30 117 L 30 116 L 30 115 L 30 114 L 30 113 L 30 112 L 30 111 L 30 110 L 30 109 L 30 108 L 30 107 L 30 106 L 30 105 L 30 104 L 30 103 L 30 102 L 30 101 L 30 100 L 30 99 L 30 98 L 30 97 L 30 96 L 30 95 L 30 94 L 30 93 L 31 92 L 31 91 L 31 90 L 31 89 L 31 88 L 31 87 L 32 86 L 32 85 L 32 84 L 32 83 L 33 82 L 33 81 L 34 80 L 34 79 L 35 78 L 35 77 L 36 76 L 37 75 L 38 74 L 39 73 L 40 72 L 41 71 L 42 70 L 43 70 L 44 69 L 45 69 L 46 68 L 47 68 L 48 68 L 49 68 L 50 67 L 51 67 L 52 67 L 53 67 L 54 67 L 55 67 L 56 67 L 57 66 L 58 66 L 59 66 L 60 66 L 61 67 L 62 67 L 63 67 L 64 67 L 65 67 L 66 68 L 67 68 L 68 68 L 69 69 L 70 69 L 71 70 L 72 71 L 73 71 L 74 72 L 75 73 L 76 74 L 77 75 L 78 76 L 78 77 L 79 78 L 79 79 L 80 80 L 80 81 L 81 82 L 81 83 L 81 84 L 82 85 L 82 86 L 82 87 L 82 88 L 82 89 L 82 90 L 83 91 L 83 92 L 83 93 L 83 94 L 83 95 L 83 96 L 83 97 L 83 98 L 83 99 L 83 100 L 83 101 L 83 102 L 83 103 L 83 104 L 83 105 L 83 106 L 83 107 L 83 108 L 83 109 L 83 110 L 83 111 L 83 112 L 83 113 L 83 114 L 83 115 L 83 116 L 83 117 L 83 118 L 83 119 L 83 120 L 83 121 L 83 122 L 83 123 L 83 124 L 83 125 L 83 126 L 83 127 L 83 128 L 83 129 L 83 130 L 83 131 L 83 132 L 83 133 L 83 134 L 83 135 L 83 136 L 83 137 L 83 138 L 83 139 L 83 140 L 83 141 L 83 142 L 83 143 L 83 144 L 83 145 L 83 146 L 83 147 L 83 148 L 83 149 L 83 150 L 83 151 L 83 152 L 83 153 L 83 154 L 83 155 L 83 156 L 83 157 L 83 158 L 84 159 L 84 160 L 85 160 L 86 160 L 87 160 L 88 160 L 89 160 L 90 160 L 91 160 L 92 160 L 93 160 L 94 160 L 95 160 L 96 160 L 97 160 L 98 160 L 99 160 L 100 160 L 101 160 L 102 160 L 103 160 L 104 160 L 104 159 L 105 158 L 105 157 L 105 156 L 105 155 L 105 154 L 105 153 L 105 152 L 105 151 L 105 150 L 105 149 L 105 148 L 105 147 L 105 146 L 105 145 L 105 144 L 105 143 L 105 142 L 105 141 L 105 140 L 105 139 L 105 138 L 105 137 L 105 136 L 105 135 L 105 134 L 105 133 L 105 132 L 105 131 L 105 130 L 105 129 L 105 128 L 105 127 L 105 126 L 105 125 L 105 124 L 105 123 L 105 122 L 105 121 L 105 120 L 105 119 L 105 118 L 105 117 L 105 116 L 105 115 L 105 114 L 105 113 L 105 112 L 105 111 L 105 110 L 105 109 L 105 108 L 105 107 L 105 106 L 105 105 L 105 104 L 105 103 L 105 102 L 105 101 L 105 100 L 105 99 L 105 98 L 105 97 L 105 96 L 105 95 L 105 94 L 105 93 L 105 92 L 105 91 L 105 90 L 105 89 L 105 88 L 105 87 L 106 86 L 106 85 L 106 84 L 106 83 L 107 82 L 107 81 L 107 80 L 108 79 L 108 78 L 109 77 L 110 76 L 110 75 L 111 74 L 112 73 L 113 72 L 114 72 L 115 71 L 116 70 L 117 70 L 118 69 L 119 69 L 120 68 L 121 68 L 122 68 L 123 67 L 124 67 L 125 67 L 126 67 L 127 67 L 128 67 L 129 66 L 130 66 L 131 66 L 132 66 L 133 66 L 134 67 L 135 67 L 136 67 L 137 67 L 138 67 L 139 68 L 140 68 L 141 68 L 142 68 L 143 69 L 144 69 L 145 70 L 146 70 L 147 71 L 148 72 L 149 73 L 150 74 L 151 75 L 152 76 L 153 77 L 154 78 L 154 79 L 155 80 L 155 81 L 156 82 L 156 83 L 156 84 L 157 85 L 157 86 L 157 87 L 157 88 L 157 89 L 158 90 L 158 91 L 158 92 L 158 93 L 158 94 L 158 95 L 158 96 L 158 97 L 158 98 L 158 99 L 158 100 L 158 101 L 158 102 L 158 103 L 158 104 L 158 105 L 158 106 L 158 107 L 158 108 L 158 109 L 158 110 L 158 111 L 158 112 L 158 113 L 158 114 L 158 115 L 158 116 L 158 117 L 158 118 L 158 119 L 158 120 L 158 121 L 158 122 L 158 123 L 158 124 L 158 125 L 158 126 L 158 127 L 158 128 L 158 129 L 158 130 L 158 131 L 158 132 L 158 133 L 158 134 L 158 135 L 158 136 L 158 137 L 158 138 L 158 139 L 158 140 L 158 141 L 158 142 L 158 143 L 158 144 L 158 145 L 158 146 L 158 147 L 158 148 L 158 149 L 158 150 L 158 151 L 158 152 L 158 153 L 158 154 L 158 155 L 158 156 L 158 157 L 158 158 L 159 159 L 160 160 L 161 160 L 162 160 L 163 160 L 164 160 L 165 160 L 166 160 L 167 160 L 168 160 L 169 160 L 170 160 L 171 160 L 172 160 L 173 160 L 174 160 L 175 160 L 176 160 L 177 160 L 178 160 L 179 160 L 180 159 L 180 158 L 180 157 L 180 156 L 180 155 L 180 154 L 180 153 L 180 152 L 180 151 L 180 150 L 180 149 L 180 148 L 180 147 L 180 146 L 180 145 L 180 144 L 180 143 L 180 142 L 180 141 L 180 140 L 180 139 L 180 138 L 180 137 L 180 136 L 180 135 L 180 134 L 180 133 L 180 132 L 180 131 L 180 130 L 180 129 L 180 128 L 180 127 L 180 126 L 180 125 L 180 124 L 180 123 L 180 122 L 180 121 L 180 120 L 180 119 L 180 118 L 180 117 L 180 116 L 180 115 L 180 114 L 180 113 L 180 112 L 180 111 L 180 110 L 180 109 L 180 108 L 180 107 L 180 106 L 180 105 L 180 104 L 180 103 L 180 102 L 180 101 L 180 100 L 180 99 L 180 98 L 180 97 L 180 96 L 180 95 L 180 94 L 180 93 L 180 92 L 180 91 L 180 90 L 180 89 L 180 88 L 180 87 L 180 86 L 179 85 L 179 84 L 179 83 L 179 82 L 178 81 L 178 80 L 178 79 L 178 78 L 177 77 L 177 76 L 177 75 L 176 74 L 176 73 L 175 72 L 175 71 L 174 70 L 173 69 L 173 68 L 172 67 L 171 66 L 171 65 L 170 64 L 169 63 L 168 62 L 167 61 L 166 60 L 165 59 L 164 59 L 163 58 L 162 57 L 161 56 L 160 56 L 159 55 L 158 55 L 157 54 L 156 54 L 155 53 L 154 53 L 153 52 L 152 52 L 151 51 L 150 51 L 149 51 L 148 50 L 147 50 L 146 50 L 145 50 L 144 50 L 143 49 L 142 49 L 141 49 L 140 49 L 139 49 L 138 49 L 137 49 L 136 49 L 135 49 L 134 49 L 133 49 L 132 49 L 131 49 L 130 49 L 129 49 L 128 49 L 127 49 L 126 49 L 125 49 L 124 49 L 123 49 L 122 49 L 121 49 L 120 49 L 119 50 L 118 50 L 117 50 L 116 50 L 115 51 L 114 51 L 113 51 L 112 52 L 111 52 L 110 52 L 109 53 L 108 53 L 107 54 L 106 54 L 105 55 L 104 55 L 103 56 L 102 57 L 101 58 L 100 58 L 99 59 L 98 60 L 97 61 L 96 62 L 96 63 L 95 64 L 94 64 L 93 63 L 93 62 L 92 61 L 91 60 L 90 59 L 89 58 L 88 58 L 87 57 L 86 56 L 85 55 L 84 55 L 83 54 L 82 54 L 81 53 L 80 53 L 79 52 L 78 52 L 77 52 L 76 51 L 75 51 L 74 51 L 73 50 L 72 50 L 71 50 L 70 50 L 69 49 L 68 49 L 67 49 L 66 49 L 65 49 L 64 49 L 63 49 L 62 49 L 61 49 L 60 49 L 59 49 L 58 49 L 57 49 L 56 49 L 55 49 L 54 49 L 53 49 L 52 49 L 51 49 L 50 49 L 49 49 L 48 49 L 47 49 Z M 624 7 L 623 8 L 622 8 L 621 8 L 620 8 L 619 8 L 618 9 L 617 9 L 616 10 L 615 11 L 614 12 L 613 13 L 612 14 L 612 15 L 611 16 L 611 17 L 610 18 L 610 19 L 610 20 L 610 21 L 610 22 L 610 23 L 610 24 L 610 25 L 611 26 L 611 27 L 611 28 L 612 29 L 612 30 L 613 31 L 614 32 L 615 33 L 616 34 L 617 34 L 618 35 L 619 35 L 620 35 L 621 36 L 622 36 L 623 36 L 624 36 L 625 36 L 626 36 L 627 36 L 628 36 L 629 35 L 630 35 L 631 35 L 632 34 L 633 34 L 634 33 L 635 33 L 636 32 L 637 31 L 638 30 L 638 29 L 639 28 L 640 27 L 640 26 L 640 25 L 640 24 L 640 23 L 640 22 L 640 21 L 640 20 L 640 19 L 640 18 L 640 17 L 639 16 L 639 15 L 638 14 L 638 13 L 637 12 L 636 11 L 635 10 L 634 9 L 633 9 L 632 8 L 631 8 L 630 8 L 629 8 L 628 7 L 627 7 L 626 7 L 625 7 Z M 571 7 L 570 8 L 569 8 L 568 8 L 567 8 L 566 8 L 565 9 L 565 10 L 564 11 L 564 12 L 564 13 L 564 14 L 564 15 L 564 16 L 564 17 L 564 18 L 564 19 L 564 20 L 564 21 L 564 22 L 564 23 L 564 24 L 564 25 L 564 26 L 564 27 L 564 28 L 564 29 L 564 30 L 564 31 L 564 32 L 564 33 L 564 34 L 564 35 L 564 36 L 564 37 L 564 38 L 564 39 L 564 40 L 564 41 L 564 42 L 564 43 L 564 44 L 564 45 L 564 46 L 564 47 L 564 48 L 564 49 L 564 50 L 564 51 L 564 52 L 564 53 L 564 54 L 564 55 L 564 56 L 564 57 L 564 58 L 564 59 L 563 60 L 562 59 L 561 58 L 560 57 L 559 57 L 558 56 L 557 56 L 556 55 L 555 55 L 554 54 L 553 54 L 552 53 L 551 53 L 550 52 L 549 52 L 548 52 L 547 51 L 546 51 L 545 51 L 544 50 L 543 50 L 542 50 L 541 50 L 540 50 L 539 49 L 538 49 L 537 49 L 536 49 L 535 49 L 534 49 L 533 49 L 532 49 L 531 49 L 530 49 L 529 49 L 528 49 L 527 49 L 526 49 L 525 49 L 524 49 L 523 49 L 522 49 L 521 49 L 520 49 L 519 49 L 518 49 L 517 50 L 516 50 L 515 50 L 514 50 L 513 50 L 512 51 L 511 51 L 510 51 L 509 52 L 508 52 L 507 52 L 506 53 L 505 53 L 504 53 L 503 54 L 502 54 L 501 55 L 500 55 L 499 56 L 498 57 L 497 57 L 496 58 L 495 58 L 494 59 L 493 60 L 492 61 L 491 62 L 490 62 L 489 63 L 488 64 L 487 65 L 486 66 L 486 67 L 485 68 L 484 69 L 483 70 L 482 71 L 482 72 L 481 73 L 480 74 L 480 75 L 479 76 L 479 77 L 478 78 L 478 79 L 477 80 L 477 81 L 476 82 L 476 83 L 475 84 L 475 85 L 475 86 L 474 87 L 474 88 L 474 89 L 473 90 L 473 91 L 473 92 L 473 93 L 473 94 L 472 95 L 472 96 L 472 97 L 472 98 L 472 99 L 472 100 L 472 101 L 472 102 L 472 103 L 472 104 L 472 105 L 472 106 L 472 107 L 471 108 L 471 109 L 472 110 L 472 111 L 472 112 L 472 113 L 472 114 L 472 115 L 472 116 L 472 117 L 473 118 L 473 119 L 473 120 L 473 121 L 473 122 L 474 123 L 474 124 L 474 125 L 474 126 L 475 127 L 475 128 L 476 129 L 476 130 L 476 131 L 477 132 L 477 133 L 478 134 L 478 135 L 479 136 L 479 137 L 480 138 L 481 139 L 482 140 L 482 141 L 483 142 L 484 143 L 485 144 L 486 145 L 487 146 L 488 147 L 489 148 L 490 149 L 491 150 L 492 151 L 493 151 L 494 152 L 495 153 L 496 154 L 497 154 L 498 155 L 499 155 L 500 156 L 501 156 L 502 157 L 503 157 L 504 158 L 505 158 L 506 159 L 507 159 L 508 159 L 509 160 L 510 160 L 511 160 L 512 160 L 513 161 L 514 161 L 515 161 L 516 162 L 517 162 L 518 162 L 519 162 L 520 162 L 521 162 L 522 162 L 523 163 L 524 163 L 525 163 L 526 163 L 527 163 L 528 163 L 529 163 L 530 163 L 531 163 L 532 163 L 533 163 L 534 163 L 535 163 L 536 163 L 537 163 L 538 162 L 539 162 L 540 162 L 541 162 L 542 162 L 543 162 L 544 162 L 545 161 L 546 161 L 547 161 L 548 161 L 549 160 L 550 160 L 551 160 L 552 159 L 553 159 L 554 159 L 555 158 L 556 158 L 557 157 L 558 157 L 559 156 L 560 156 L 561 155 L 562 155 L 563 154 L 564 153 L 565 153 L 566 152 L 567 151 L 568 150 L 569 149 L 570 148 L 571 148 L 572 147 L 573 146 L 573 145 L 574 144 L 575 143 L 576 142 L 577 141 L 577 140 L 578 139 L 579 138 L 579 137 L 580 136 L 580 135 L 581 134 L 581 133 L 582 132 L 582 131 L 583 130 L 583 129 L 583 128 L 584 127 L 584 126 L 584 125 L 585 124 L 585 123 L 585 122 L 585 121 L 585 120 L 586 119 L 586 118 L 586 117 L 586 116 L 586 115 L 586 114 L 586 113 L 586 112 L 587 111 L 587 110 L 587 109 L 587 108 L 587 107 L 587 106 L 587 105 L 587 104 L 587 103 L 587 102 L 587 101 L 587 100 L 587 99 L 586 98 L 586 97 L 586 96 L 586 95 L 587 94 L 587 93 L 586 92 L 586 91 L 586 90 L 586 89 L 586 88 L 586 87 L 586 86 L 586 85 L 586 84 L 586 83 L 586 82 L 586 81 L 586 80 L 586 79 L 586 78 L 586 77 L 586 76 L 586 75 L 586 74 L 586 73 L 587 72 L 587 71 L 587 70 L 587 69 L 586 68 L 586 67 L 586 66 L 586 65 L 586 64 L 586 63 L 586 62 L 586 61 L 586 60 L 586 59 L 586 58 L 586 57 L 587 56 L 586 55 L 587 54 L 587 53 L 586 52 L 586 51 L 586 50 L 586 49 L 586 48 L 586 47 L 586 46 L 587 45 L 586 44 L 586 43 L 586 42 L 586 41 L 586 40 L 586 39 L 586 38 L 587 37 L 586 36 L 586 35 L 587 34 L 586 33 L 586 32 L 586 31 L 586 30 L 587 29 L 586 28 L 587 27 L 587 26 L 587 25 L 587 24 L 587 23 L 587 22 L 587 21 L 586 20 L 586 19 L 586 18 L 586 17 L 586 16 L 586 15 L 586 14 L 586 13 L 586 12 L 586 11 L 586 10 L 585 9 L 584 8 L 583 8 L 582 8 L 581 8 L 580 8 L 579 8 L 578 8 L 577 8 L 576 7 L 575 7 L 574 7 L 573 7 L 572 7 Z M 527 67 L 528 66 L 529 67 L 530 66 L 531 66 L 532 67 L 533 67 L 534 67 L 535 67 L 536 67 L 537 67 L 538 67 L 539 68 L 540 68 L 541 68 L 542 68 L 543 69 L 544 69 L 545 70 L 546 70 L 547 70 L 548 71 L 549 72 L 550 72 L 551 73 L 552 74 L 553 75 L 554 76 L 555 77 L 556 78 L 557 79 L 558 80 L 558 81 L 559 82 L 560 83 L 560 84 L 561 85 L 561 86 L 562 87 L 562 88 L 563 89 L 563 90 L 563 91 L 564 92 L 564 93 L 564 94 L 565 95 L 565 96 L 565 97 L 565 98 L 565 99 L 565 100 L 565 101 L 565 102 L 565 103 L 566 104 L 566 105 L 566 106 L 566 107 L 566 108 L 566 109 L 566 110 L 566 111 L 565 112 L 565 113 L 565 114 L 565 115 L 565 116 L 565 117 L 564 118 L 564 119 L 564 120 L 564 121 L 563 122 L 563 123 L 563 124 L 562 125 L 562 126 L 561 127 L 561 128 L 560 129 L 559 130 L 559 131 L 558 132 L 557 133 L 556 134 L 555 135 L 554 136 L 553 137 L 552 138 L 551 139 L 550 140 L 549 140 L 548 141 L 547 141 L 546 142 L 545 142 L 544 143 L 543 143 L 542 143 L 541 144 L 540 144 L 539 144 L 538 144 L 537 145 L 536 145 L 535 145 L 534 145 L 533 145 L 532 145 L 531 145 L 530 145 L 529 145 L 528 145 L 527 145 L 526 145 L 525 145 L 524 145 L 523 145 L 522 144 L 521 144 L 520 144 L 519 144 L 518 143 L 517 143 L 516 143 L 515 142 L 514 142 L 513 141 L 512 141 L 511 140 L 510 140 L 509 139 L 508 138 L 507 137 L 506 136 L 505 135 L 504 134 L 503 133 L 502 132 L 501 131 L 500 130 L 499 129 L 499 128 L 498 127 L 498 126 L 497 125 L 497 124 L 496 123 L 496 122 L 496 121 L 495 120 L 495 119 L 495 118 L 495 117 L 494 116 L 494 115 L 494 114 L 494 113 L 494 112 L 494 111 L 494 110 L 494 109 L 493 108 L 493 107 L 493 106 L 493 105 L 493 104 L 493 103 L 494 102 L 494 101 L 494 100 L 494 99 L 494 98 L 494 97 L 494 96 L 495 95 L 495 94 L 495 93 L 495 92 L 496 91 L 496 90 L 496 89 L 497 88 L 497 87 L 498 86 L 498 85 L 499 84 L 499 83 L 500 82 L 501 81 L 501 80 L 502 79 L 503 78 L 504 77 L 505 76 L 506 75 L 507 74 L 508 74 L 509 73 L 510 72 L 511 71 L 512 71 L 513 70 L 514 70 L 515 69 L 516 69 L 517 69 L 518 68 L 519 68 L 520 68 L 521 67 L 522 67 L 523 67 L 524 67 L 525 67 L 526 67 Z"/>
</svg>
