<svg xmlns="http://www.w3.org/2000/svg" viewBox="0 0 769 192" role="img" aria-labelledby="title desc">
  <title id="title">moodi logo</title>
  <desc id="desc">Black moodi wordmark with tightly cropped bounds for mobile header use.</desc>
  <path d="M 735 55 L 735 183 L 762 183 L 762 180 L 763 179 L 763 177 L 762 176 L 762 174 L 763 173 L 763 145 L 762 144 L 762 127 L 763 126 L 763 109 L 762 108 L 762 100 L 763 99 L 763 63 L 762 62 L 762 55 Z M 449 53 L 448 54 L 445 54 L 444 55 L 439 56 L 436 58 L 434 58 L 428 61 L 426 63 L 425 63 L 423 65 L 419 67 L 408 78 L 408 79 L 405 82 L 404 85 L 402 87 L 398 95 L 398 97 L 396 101 L 396 104 L 395 105 L 395 108 L 394 109 L 394 131 L 395 132 L 395 136 L 396 137 L 396 139 L 397 140 L 398 145 L 404 157 L 407 160 L 407 161 L 420 174 L 421 174 L 426 178 L 429 179 L 431 181 L 433 182 L 435 182 L 438 184 L 443 185 L 444 186 L 447 186 L 448 187 L 452 187 L 453 188 L 461 188 L 462 189 L 471 189 L 472 188 L 479 188 L 480 187 L 484 187 L 485 186 L 487 186 L 488 185 L 490 185 L 491 184 L 496 183 L 504 179 L 506 177 L 510 175 L 513 172 L 514 172 L 522 164 L 522 163 L 528 156 L 534 144 L 534 142 L 536 138 L 536 135 L 537 134 L 537 128 L 538 127 L 538 113 L 537 112 L 537 107 L 536 106 L 535 99 L 533 96 L 533 94 L 529 86 L 527 84 L 525 80 L 521 76 L 521 75 L 511 66 L 510 66 L 505 62 L 495 57 L 493 57 L 492 56 L 490 56 L 486 54 L 483 54 L 482 53 L 478 53 L 477 52 L 455 52 L 454 53 Z M 447 77 L 449 77 L 453 75 L 456 75 L 457 74 L 475 74 L 476 75 L 479 75 L 480 76 L 485 77 L 489 79 L 494 83 L 495 83 L 505 93 L 505 94 L 507 96 L 511 104 L 511 106 L 513 110 L 513 115 L 514 116 L 514 125 L 513 126 L 513 131 L 512 132 L 511 137 L 508 143 L 504 148 L 504 149 L 496 157 L 495 157 L 493 159 L 492 159 L 490 161 L 486 163 L 484 163 L 481 165 L 478 165 L 477 166 L 472 166 L 471 167 L 459 167 L 458 166 L 454 166 L 453 165 L 448 164 L 440 160 L 438 158 L 437 158 L 426 147 L 425 144 L 423 142 L 421 138 L 421 136 L 419 132 L 419 129 L 418 128 L 418 113 L 419 112 L 419 109 L 420 108 L 421 103 L 425 95 L 428 92 L 428 91 L 435 84 L 436 84 L 441 80 Z M 294 52 L 293 53 L 289 53 L 288 54 L 281 55 L 280 56 L 278 56 L 275 58 L 273 58 L 269 60 L 267 62 L 264 63 L 258 68 L 257 68 L 249 76 L 249 77 L 245 81 L 245 82 L 243 84 L 237 96 L 237 98 L 235 102 L 235 105 L 234 106 L 234 111 L 233 112 L 233 129 L 234 130 L 234 135 L 235 136 L 235 139 L 238 145 L 238 147 L 241 153 L 243 155 L 244 158 L 247 161 L 247 162 L 259 174 L 260 174 L 265 178 L 277 184 L 279 184 L 283 186 L 286 186 L 287 187 L 291 187 L 292 188 L 299 188 L 300 189 L 310 189 L 311 188 L 318 188 L 319 187 L 323 187 L 324 186 L 327 186 L 328 185 L 330 185 L 333 183 L 335 183 L 345 178 L 347 176 L 351 174 L 363 162 L 363 161 L 366 158 L 366 157 L 368 155 L 373 145 L 373 143 L 375 139 L 375 136 L 376 135 L 376 131 L 377 130 L 377 111 L 376 110 L 376 105 L 375 104 L 375 102 L 374 101 L 374 99 L 373 98 L 372 93 L 370 89 L 368 87 L 367 84 L 365 82 L 365 81 L 362 78 L 362 77 L 353 68 L 352 68 L 346 63 L 343 62 L 341 60 L 337 58 L 335 58 L 329 55 L 322 54 L 321 53 L 317 53 L 316 52 Z M 286 77 L 288 77 L 292 75 L 295 75 L 296 74 L 314 74 L 315 75 L 318 75 L 319 76 L 324 77 L 330 80 L 337 86 L 338 86 L 345 94 L 345 95 L 347 97 L 350 103 L 350 105 L 352 109 L 352 112 L 353 113 L 353 128 L 352 129 L 352 132 L 351 133 L 350 138 L 348 142 L 344 147 L 344 148 L 334 158 L 333 158 L 331 160 L 325 163 L 323 163 L 320 165 L 317 165 L 316 166 L 312 166 L 311 167 L 299 167 L 298 166 L 293 166 L 292 165 L 287 164 L 279 160 L 276 157 L 275 157 L 266 148 L 266 147 L 264 145 L 259 135 L 259 133 L 258 132 L 258 127 L 257 126 L 257 114 L 258 113 L 258 109 L 259 108 L 260 103 L 263 97 L 269 90 L 269 89 L 277 82 L 278 82 L 280 80 Z M 6 84 L 6 86 L 4 90 L 4 93 L 3 94 L 3 100 L 2 101 L 2 183 L 25 183 L 25 175 L 26 174 L 26 136 L 25 135 L 25 131 L 26 130 L 26 101 L 27 100 L 27 98 L 28 97 L 28 95 L 30 91 L 32 89 L 32 88 L 39 81 L 40 81 L 42 79 L 46 77 L 48 77 L 49 76 L 52 76 L 53 75 L 69 75 L 70 76 L 72 76 L 73 77 L 75 77 L 79 79 L 81 81 L 82 81 L 89 88 L 89 89 L 91 91 L 94 97 L 94 99 L 95 100 L 95 104 L 96 105 L 96 183 L 119 183 L 119 160 L 120 159 L 120 153 L 119 152 L 119 109 L 120 108 L 120 102 L 121 101 L 121 98 L 125 90 L 127 88 L 127 87 L 132 82 L 133 82 L 138 78 L 140 78 L 143 76 L 146 76 L 147 75 L 163 75 L 164 76 L 169 77 L 173 79 L 175 81 L 176 81 L 184 89 L 184 90 L 186 92 L 187 94 L 187 96 L 188 97 L 188 99 L 189 100 L 189 104 L 190 105 L 190 183 L 213 183 L 213 97 L 212 96 L 212 92 L 211 91 L 211 88 L 209 85 L 209 83 L 207 79 L 203 74 L 203 73 L 193 63 L 187 60 L 185 58 L 183 58 L 180 56 L 178 56 L 177 55 L 175 55 L 171 53 L 166 53 L 165 52 L 146 52 L 145 53 L 141 53 L 140 54 L 138 54 L 137 55 L 132 56 L 124 60 L 122 62 L 121 62 L 111 72 L 111 73 L 109 75 L 107 75 L 106 73 L 103 70 L 103 69 L 99 65 L 98 65 L 92 60 L 84 56 L 82 56 L 79 54 L 76 54 L 75 53 L 71 53 L 70 52 L 50 52 L 49 53 L 44 53 L 43 54 L 41 54 L 40 55 L 35 56 L 27 60 L 25 62 L 21 64 L 13 72 L 13 73 L 9 78 Z M 745 6 L 744 7 L 742 7 L 740 8 L 734 14 L 733 16 L 733 18 L 732 19 L 732 26 L 733 27 L 733 29 L 735 33 L 739 37 L 743 39 L 746 39 L 747 40 L 751 40 L 752 39 L 755 39 L 759 37 L 763 33 L 766 27 L 766 19 L 765 18 L 765 16 L 764 14 L 758 8 L 756 7 L 754 7 L 753 6 Z M 705 2 L 682 2 L 682 10 L 681 11 L 681 32 L 682 33 L 682 63 L 681 65 L 682 66 L 682 68 L 681 69 L 681 72 L 680 73 L 678 73 L 671 66 L 670 66 L 664 61 L 654 56 L 652 56 L 648 54 L 645 54 L 644 53 L 640 53 L 639 52 L 616 52 L 615 53 L 610 53 L 606 55 L 603 55 L 602 56 L 600 56 L 597 58 L 595 58 L 589 61 L 587 63 L 586 63 L 584 65 L 580 67 L 570 77 L 570 78 L 567 81 L 564 87 L 562 89 L 562 91 L 559 96 L 559 98 L 557 102 L 557 105 L 556 106 L 556 111 L 555 112 L 555 129 L 556 130 L 556 135 L 557 136 L 557 139 L 558 140 L 558 142 L 560 145 L 560 147 L 564 155 L 566 157 L 568 161 L 581 174 L 582 174 L 587 178 L 590 179 L 592 181 L 594 182 L 596 182 L 599 184 L 604 185 L 605 186 L 608 186 L 609 187 L 613 187 L 614 188 L 621 188 L 622 189 L 629 189 L 630 188 L 637 188 L 638 187 L 642 187 L 643 186 L 645 186 L 646 185 L 648 185 L 651 183 L 653 183 L 655 182 L 657 180 L 660 179 L 666 174 L 667 174 L 675 166 L 676 164 L 678 164 L 679 165 L 679 183 L 705 183 Z M 609 77 L 611 77 L 615 75 L 618 75 L 619 74 L 638 74 L 639 75 L 643 75 L 644 76 L 649 77 L 657 81 L 659 83 L 660 83 L 672 95 L 673 98 L 675 100 L 675 102 L 677 105 L 677 107 L 678 108 L 678 111 L 679 112 L 679 128 L 678 129 L 678 132 L 677 133 L 677 135 L 673 143 L 667 150 L 667 151 L 660 157 L 659 157 L 654 161 L 652 162 L 650 162 L 644 165 L 641 165 L 640 166 L 635 166 L 634 167 L 623 167 L 622 166 L 617 166 L 616 165 L 613 165 L 612 164 L 610 164 L 602 160 L 600 158 L 599 158 L 589 148 L 589 147 L 586 144 L 583 138 L 583 136 L 581 132 L 581 129 L 580 128 L 580 113 L 581 112 L 581 108 L 582 107 L 582 105 L 587 95 L 590 92 L 590 91 L 600 82 L 601 82 L 603 80 Z" fill="#111111" fill-rule="evenodd"/>
</svg>
